<svg width="156" height="40" viewBox="0 0 156 40" fill="none" xmlns="http://www.w3.org/2000/svg">
<path d="M149.906 28.8121C148.802 28.8121 147.794 28.5281 146.882 27.9601C145.978 27.3921 145.254 26.6281 144.71 25.6681C144.174 24.7081 143.906 23.6481 143.906 22.4881C143.906 21.6161 144.062 20.8001 144.374 20.0401C144.686 19.2721 145.114 18.6001 145.658 18.0241C146.21 17.4401 146.85 16.9841 147.578 16.6561C148.306 16.3281 149.082 16.1641 149.906 16.1641C150.842 16.1641 151.698 16.3641 152.474 16.7641C153.258 17.1561 153.922 17.6961 154.466 18.3841C155.01 19.0721 155.406 19.8561 155.654 20.7361C155.902 21.6161 155.958 22.5361 155.822 23.4961H147.05C147.162 23.9441 147.346 24.3481 147.602 24.7081C147.858 25.0601 148.182 25.3441 148.574 25.5601C148.966 25.7681 149.41 25.8761 149.906 25.8841C150.418 25.8921 150.882 25.7721 151.298 25.5241C151.722 25.2681 152.074 24.9241 152.354 24.4921L155.342 25.1881C154.854 26.2521 154.126 27.1241 153.158 27.8041C152.19 28.4761 151.106 28.8121 149.906 28.8121ZM146.954 21.3001H152.858C152.77 20.8201 152.582 20.3881 152.294 20.0041C152.014 19.6121 151.666 19.3001 151.25 19.0681C150.834 18.8361 150.386 18.7201 149.906 18.7201C149.426 18.7201 148.982 18.8361 148.574 19.0681C148.166 19.2921 147.818 19.6001 147.53 19.9921C147.25 20.3761 147.058 20.8121 146.954 21.3001Z" fill="#202020"/>
<path d="M139.002 10.5H141.93V28.5H139.002V27C138.618 27.536 138.134 27.972 137.55 28.308C136.966 28.644 136.29 28.812 135.522 28.812C134.65 28.812 133.834 28.648 133.074 28.32C132.314 27.992 131.642 27.54 131.058 26.964C130.482 26.38 130.03 25.708 129.702 24.948C129.374 24.188 129.21 23.372 129.21 22.5C129.21 21.628 129.374 20.812 129.702 20.052C130.03 19.292 130.482 18.624 131.058 18.048C131.642 17.464 132.314 17.008 133.074 16.68C133.834 16.352 134.65 16.188 135.522 16.188C136.29 16.188 136.966 16.356 137.55 16.692C138.134 17.02 138.618 17.456 139.002 18V10.5ZM135.558 25.992C136.182 25.992 136.734 25.836 137.214 25.524C137.694 25.212 138.07 24.792 138.342 24.264C138.614 23.728 138.75 23.14 138.75 22.5C138.75 21.852 138.614 21.264 138.342 20.736C138.07 20.2 137.69 19.776 137.202 19.464C136.722 19.152 136.174 18.996 135.558 18.996C134.942 18.996 134.378 19.156 133.866 19.476C133.362 19.788 132.958 20.208 132.654 20.736C132.358 21.264 132.21 21.852 132.21 22.5C132.21 23.148 132.362 23.736 132.666 24.264C132.97 24.792 133.374 25.212 133.878 25.524C134.39 25.836 134.95 25.992 135.558 25.992Z" fill="#202020"/>
<path d="M122.015 28.8121C120.911 28.8121 119.903 28.5281 118.991 27.9601C118.087 27.3921 117.363 26.6321 116.819 25.6801C116.283 24.7201 116.015 23.6601 116.015 22.5001C116.015 21.6201 116.171 20.8001 116.483 20.0401C116.795 19.2721 117.223 18.6001 117.767 18.0241C118.319 17.4401 118.959 16.9841 119.687 16.6561C120.415 16.3281 121.191 16.1641 122.015 16.1641C123.119 16.1641 124.123 16.4481 125.027 17.0161C125.939 17.5841 126.663 18.3481 127.199 19.3081C127.743 20.2681 128.015 21.3321 128.015 22.5001C128.015 23.3721 127.859 24.1881 127.547 24.9481C127.235 25.7081 126.803 26.3801 126.251 26.9641C125.707 27.5401 125.071 27.9921 124.343 28.3201C123.623 28.6481 122.847 28.8121 122.015 28.8121ZM122.015 25.8841C122.599 25.8841 123.123 25.7281 123.587 25.4161C124.051 25.1041 124.415 24.6921 124.679 24.1801C124.951 23.6681 125.087 23.1081 125.087 22.5001C125.087 21.8761 124.947 21.3081 124.667 20.7961C124.395 20.2761 124.023 19.8641 123.551 19.5601C123.087 19.2481 122.575 19.0921 122.015 19.0921C121.439 19.0921 120.919 19.2481 120.455 19.5601C119.991 19.8721 119.623 20.2881 119.351 20.8081C119.079 21.3281 118.943 21.8921 118.943 22.5001C118.943 23.1321 119.083 23.7041 119.363 24.2161C119.643 24.7281 120.015 25.1361 120.479 25.4401C120.951 25.7361 121.463 25.8841 122.015 25.8841Z" fill="#202020"/>
<path d="M112.316 24.8881L114.956 26.3161C114.404 27.0681 113.712 27.6721 112.88 28.1281C112.048 28.5841 111.14 28.8121 110.156 28.8121C109.052 28.8121 108.044 28.5281 107.132 27.9601C106.228 27.3921 105.504 26.6321 104.96 25.6801C104.424 24.7201 104.156 23.6601 104.156 22.5001C104.156 21.6201 104.312 20.8001 104.624 20.0401C104.936 19.2721 105.364 18.6001 105.908 18.0241C106.46 17.4401 107.1 16.9841 107.828 16.6561C108.556 16.3281 109.332 16.1641 110.156 16.1641C111.14 16.1641 112.048 16.3921 112.88 16.8481C113.712 17.3041 114.404 17.9161 114.956 18.6841L112.316 20.1001C112.036 19.7801 111.704 19.5321 111.32 19.3561C110.944 19.1801 110.556 19.0921 110.156 19.0921C109.58 19.0921 109.06 19.2521 108.596 19.5721C108.132 19.8841 107.764 20.3001 107.492 20.8201C107.22 21.3321 107.084 21.8921 107.084 22.5001C107.084 23.1001 107.22 23.6601 107.492 24.1801C107.764 24.6921 108.132 25.1041 108.596 25.4161C109.06 25.7281 109.58 25.8841 110.156 25.8841C110.572 25.8841 110.968 25.7961 111.344 25.6201C111.72 25.4361 112.044 25.1921 112.316 24.8881Z" fill="#202020"/>
<path d="M102.987 19.4279H100.659V28.4999H97.7312V19.4279H95.9552V16.4999H97.7312V12.7319H100.659V16.4999H102.987V19.4279Z" fill="#202020"/>
<path d="M90.9043 13.9799V16.4999H94.1803V19.4279H90.9043V28.4999H87.9763V19.4279H86.6683V16.4999H87.9763V13.9799C87.9763 13.2919 88.1443 12.6639 88.4803 12.0959C88.8243 11.5199 89.2843 11.0639 89.8603 10.7279C90.4363 10.3839 91.0723 10.2119 91.7683 10.2119C92.2723 10.2119 92.7723 10.3159 93.2683 10.5239C93.7643 10.7319 94.2043 11.0519 94.5883 11.4839L92.4763 13.5479C92.4043 13.4119 92.3003 13.3119 92.1643 13.2479C92.0363 13.1759 91.9043 13.1399 91.7683 13.1399C91.5363 13.1399 91.3323 13.2239 91.1563 13.3919C90.9883 13.5519 90.9043 13.7479 90.9043 13.9799Z" fill="#202020"/>
<path d="M79.3586 28.8121C78.2546 28.8121 77.2466 28.5281 76.3346 27.9601C75.4306 27.3921 74.7066 26.6321 74.1626 25.6801C73.6266 24.7201 73.3586 23.6601 73.3586 22.5001C73.3586 21.6201 73.5146 20.8001 73.8266 20.0401C74.1386 19.2721 74.5666 18.6001 75.1106 18.0241C75.6626 17.4401 76.3026 16.9841 77.0306 16.6561C77.7586 16.3281 78.5346 16.1641 79.3586 16.1641C80.4626 16.1641 81.4666 16.4481 82.3706 17.0161C83.2826 17.5841 84.0066 18.3481 84.5426 19.3081C85.0866 20.2681 85.3586 21.3321 85.3586 22.5001C85.3586 23.3721 85.2026 24.1881 84.8906 24.9481C84.5786 25.7081 84.1466 26.3801 83.5946 26.9641C83.0506 27.5401 82.4146 27.9921 81.6866 28.3201C80.9666 28.6481 80.1906 28.8121 79.3586 28.8121ZM79.3586 25.8841C79.9426 25.8841 80.4666 25.7281 80.9306 25.4161C81.3946 25.1041 81.7586 24.6921 82.0226 24.1801C82.2946 23.6681 82.4306 23.1081 82.4306 22.5001C82.4306 21.8761 82.2906 21.3081 82.0106 20.7961C81.7386 20.2761 81.3666 19.8641 80.8946 19.5601C80.4306 19.2481 79.9186 19.0921 79.3586 19.0921C78.7826 19.0921 78.2626 19.2481 77.7986 19.5601C77.3346 19.8721 76.9666 20.2881 76.6946 20.8081C76.4226 21.3281 76.2866 21.8921 76.2866 22.5001C76.2866 23.1321 76.4266 23.7041 76.7066 24.2161C76.9866 24.7281 77.3586 25.1361 77.8226 25.4401C78.2946 25.7361 78.8066 25.8841 79.3586 25.8841Z" fill="#202020"/>
<path d="M65.5251 28.8119C64.5971 28.8119 63.7051 28.6679 62.8491 28.3799C62.0011 28.0839 61.2571 27.6639 60.6171 27.1199C59.9771 26.5679 59.5171 25.9079 59.2371 25.1399L61.9851 24.1319C62.0971 24.4519 62.3251 24.7439 62.6691 25.0079C63.0131 25.2719 63.4331 25.4839 63.9291 25.6439C64.4251 25.8039 64.9571 25.8839 65.5251 25.8839C66.1091 25.8839 66.6531 25.7959 67.1571 25.6199C67.6691 25.4359 68.0811 25.1839 68.3931 24.8639C68.7051 24.5359 68.8611 24.1559 68.8611 23.7239C68.8611 23.2839 68.6971 22.9239 68.3691 22.6439C68.0411 22.3559 67.6211 22.1279 67.1091 21.9599C66.5971 21.7919 66.0691 21.6639 65.5251 21.5759C64.3331 21.3919 63.2651 21.1079 62.3211 20.7239C61.3771 20.3399 60.6291 19.8079 60.0771 19.1279C59.5331 18.4479 59.2611 17.5679 59.2611 16.4879C59.2611 15.4719 59.5531 14.5839 60.1371 13.8239C60.7211 13.0639 61.4891 12.4719 62.4411 12.0479C63.3931 11.6239 64.4211 11.4119 65.5251 11.4119C66.4451 11.4119 67.3331 11.5559 68.1891 11.8439C69.0451 12.1319 69.7931 12.5519 70.4331 13.1039C71.0811 13.6559 71.5451 14.3199 71.8251 15.0959L69.0651 16.0919C68.9531 15.7719 68.7251 15.4799 68.3811 15.2159C68.0371 14.9519 67.6171 14.7439 67.1211 14.5919C66.6251 14.4319 66.0931 14.3519 65.5251 14.3519C64.9571 14.3439 64.4171 14.4359 63.9051 14.6279C63.4011 14.8119 62.9891 15.0639 62.6691 15.3839C62.3491 15.7039 62.1891 16.0719 62.1891 16.4879C62.1891 17.0239 62.3371 17.4279 62.6331 17.6999C62.9371 17.9719 63.3411 18.1719 63.8451 18.2999C64.3491 18.4199 64.9091 18.5319 65.5251 18.6359C66.6451 18.8119 67.6811 19.1079 68.6331 19.5239C69.5851 19.9399 70.3491 20.4959 70.9251 21.1919C71.5011 21.8799 71.7891 22.7239 71.7891 23.7239C71.7891 24.7399 71.5011 25.6319 70.9251 26.3999C70.3491 27.1599 69.5851 27.7519 68.6331 28.1759C67.6811 28.5999 66.6451 28.8119 65.5251 28.8119Z" fill="#202020"/>
<path d="M12.0523 20.0023V13.3333V6.66895L6.27388 9.99888L0.5 13.3333V26.6667L23.6 40L23.6046 26.6667L12.0523 20.0023Z" fill="#1465FF"/>
<path d="M35.1524 20.0023V26.6667V33.3356L40.9308 30.0011L46.7047 26.6667V13.3333L23.6046 0V13.3333L35.1524 20.0023Z" fill="#BFFF34"/>
</svg>
