<svg width="180" height="26" viewBox="0 0 180 26" fill="none" xmlns="http://www.w3.org/2000/svg">
<path d="M171.628 21.0319C170.241 21.0319 169.004 20.8399 167.916 20.4559C166.849 20.0719 165.942 19.5173 165.196 18.7919C164.449 18.0666 163.873 17.1706 163.468 16.1039C163.084 15.0373 162.892 13.8319 162.892 12.4879C162.892 11.1653 163.073 9.94927 163.436 8.83994C163.82 7.70927 164.374 6.7386 165.1 5.92794C165.825 5.09594 166.71 4.45594 167.756 4.00794C168.801 3.55994 169.985 3.33594 171.308 3.33594C172.588 3.33594 173.729 3.54927 174.732 3.97594C175.734 4.38127 176.566 4.99994 177.228 5.83194C177.91 6.66394 178.401 7.68794 178.7 8.90394C179.02 10.0986 179.137 11.4746 179.052 13.0319L165.868 13.1599V10.6319L176.396 10.5359L174.764 11.8159C174.913 10.6853 174.838 9.75727 174.54 9.03194C174.241 8.3066 173.804 7.77327 173.228 7.43194C172.673 7.0906 172.054 6.91994 171.372 6.91994C170.561 6.91994 169.846 7.13327 169.228 7.55994C168.609 7.9866 168.129 8.61594 167.788 9.44794C167.446 10.2586 167.276 11.2399 167.276 12.3919C167.276 14.2053 167.67 15.5386 168.46 16.3919C169.27 17.2453 170.326 17.6719 171.628 17.6719C172.225 17.6719 172.726 17.5973 173.132 17.4479C173.558 17.2773 173.9 17.0639 174.156 16.8079C174.433 16.5519 174.646 16.2639 174.796 15.9439C174.966 15.6239 175.105 15.3039 175.212 14.9839L179.212 15.8479C179.02 16.6373 178.732 17.3519 178.348 17.9919C177.985 18.6106 177.494 19.1546 176.876 19.6239C176.257 20.0719 175.51 20.4133 174.636 20.6479C173.782 20.9039 172.78 21.0319 171.628 21.0319Z" fill="white"/>
<path d="M157.435 20.968C155.557 20.968 154.171 20.4774 153.275 19.496C152.4 18.4934 151.963 16.904 151.963 14.728V7.40004H149.531L149.595 3.78404H151.291C151.952 3.78404 152.443 3.68804 152.763 3.49604C153.083 3.30404 153.275 2.95204 153.339 2.44004L153.755 0.0400391H156.379V3.78404H160.635V7.52804H156.379V14.536C156.379 15.304 156.56 15.8587 156.923 16.2C157.285 16.5414 157.84 16.712 158.587 16.712C158.992 16.712 159.376 16.6694 159.739 16.584C160.123 16.4987 160.453 16.36 160.731 16.168V20.456C160.069 20.6694 159.461 20.808 158.907 20.872C158.352 20.936 157.861 20.968 157.435 20.968Z" fill="white"/>
<path d="M139.311 21.0319C137.625 21.0319 136.143 20.7013 134.863 20.0399C133.583 19.3573 132.58 18.3653 131.855 17.0639C131.129 15.7413 130.767 14.0986 130.767 12.1359C130.767 10.1733 131.129 8.54127 131.855 7.23994C132.601 5.9386 133.615 4.96794 134.895 4.32794C136.196 3.6666 137.668 3.33594 139.311 3.33594C140.996 3.33594 142.479 3.6666 143.759 4.32794C145.06 4.98927 146.073 5.98127 146.799 7.30394C147.545 8.60527 147.919 10.2373 147.919 12.1999C147.919 14.1839 147.535 15.8373 146.767 17.1599C146.02 18.4613 144.996 19.4319 143.695 20.0719C142.415 20.7119 140.953 21.0319 139.311 21.0319ZM139.471 17.6079C140.303 17.6079 140.996 17.4159 141.551 17.0319C142.127 16.6479 142.553 16.0719 142.831 15.3039C143.129 14.5146 143.279 13.5653 143.279 12.4559C143.279 11.2826 143.119 10.2906 142.799 9.47994C142.5 8.64794 142.052 8.0186 141.455 7.59194C140.857 7.14394 140.1 6.91994 139.183 6.91994C138.393 6.91994 137.711 7.11194 137.135 7.49594C136.559 7.8586 136.121 8.4346 135.823 9.22394C135.524 9.99194 135.375 10.9413 135.375 12.0719C135.375 13.8853 135.737 15.2613 136.463 16.1999C137.188 17.1386 138.191 17.6079 139.471 17.6079Z" fill="white"/>
<path d="M101.413 20.5839V9.83194V3.78394H105.093V8.80794H105.701C106 7.5706 106.395 6.55727 106.885 5.76794C107.376 4.95727 107.963 4.34927 108.645 3.94394C109.349 3.5386 110.171 3.33594 111.109 3.33594C112.112 3.33594 112.944 3.55994 113.605 4.00794C114.267 4.45594 114.779 5.08527 115.141 5.89594C115.504 6.68527 115.739 7.65594 115.845 8.80794H116.357C116.677 7.54927 117.104 6.5146 117.637 5.70394C118.192 4.89327 118.843 4.29594 119.589 3.91194C120.357 3.52794 121.2 3.33594 122.117 3.33594C123.035 3.33594 123.835 3.51727 124.517 3.87994C125.221 4.24261 125.808 4.78661 126.277 5.51194C126.747 6.21594 127.099 7.11194 127.333 8.19994C127.568 9.2666 127.685 10.5039 127.685 11.9119V20.5839H123.077V12.4879C123.077 11.3359 122.981 10.3759 122.789 9.60794C122.597 8.8186 122.299 8.23194 121.893 7.84794C121.488 7.46394 120.965 7.27194 120.325 7.27194C119.621 7.27194 119.013 7.51727 118.501 8.00794C117.989 8.47727 117.584 9.12794 117.285 9.95994C116.987 10.7919 116.827 11.7413 116.805 12.8079V20.5839H112.293V12.6159C112.293 11.4213 112.187 10.4399 111.973 9.67194C111.76 8.8826 111.451 8.28527 111.045 7.87994C110.64 7.47461 110.128 7.27194 109.509 7.27194C108.784 7.27194 108.165 7.51727 107.653 8.00794C107.141 8.47727 106.747 9.1386 106.469 9.99194C106.192 10.8453 106.043 11.7946 106.021 12.8399V20.5839H101.413Z" fill="white"/>
<path d="M89.5294 21.0319C87.844 21.0319 86.3614 20.7013 85.0814 20.0399C83.8014 19.3573 82.7987 18.3653 82.0734 17.0639C81.348 15.7413 80.9854 14.0986 80.9854 12.1359C80.9854 10.1733 81.348 8.54127 82.0734 7.23994C82.82 5.9386 83.8333 4.96794 85.1133 4.32794C86.4147 3.6666 87.8867 3.33594 89.5294 3.33594C91.2147 3.33594 92.6974 3.6666 93.9774 4.32794C95.2787 4.98927 96.292 5.98127 97.0174 7.30394C97.764 8.60527 98.1374 10.2373 98.1374 12.1999C98.1374 14.1839 97.7534 15.8373 96.9854 17.1599C96.2387 18.4613 95.2147 19.4319 93.9134 20.0719C92.6334 20.7119 91.172 21.0319 89.5294 21.0319ZM89.6894 17.6079C90.5214 17.6079 91.2147 17.4159 91.7694 17.0319C92.3454 16.6479 92.772 16.0719 93.0494 15.3039C93.348 14.5146 93.4974 13.5653 93.4974 12.4559C93.4974 11.2826 93.3374 10.2906 93.0174 9.47994C92.7187 8.64794 92.2707 8.0186 91.6734 7.59194C91.076 7.14394 90.3187 6.91994 89.4014 6.91994C88.612 6.91994 87.9294 7.11194 87.3534 7.49594C86.7774 7.8586 86.34 8.4346 86.0414 9.22394C85.7427 9.99194 85.5934 10.9413 85.5934 12.0719C85.5934 13.8853 85.956 15.2613 86.6814 16.1999C87.4067 17.1386 88.4094 17.6079 89.6894 17.6079Z" fill="white"/>
<path d="M68.1008 20.5839V12.4559V3.7839H71.9088L71.9408 9.5119H72.5488C72.7195 8.08257 73.0075 6.9199 73.4128 6.0239C73.8395 5.1279 74.4262 4.46657 75.1728 4.0399C75.9195 3.61324 76.8475 3.3999 77.9568 3.3999C78.1488 3.3999 78.3515 3.41057 78.5648 3.4319C78.7995 3.4319 79.0662 3.4639 79.3648 3.5279L79.1728 8.4239C78.8528 8.27457 78.5008 8.1679 78.1168 8.1039C77.7328 8.0399 77.3915 8.0079 77.0928 8.0079C76.2608 8.0079 75.5462 8.1999 74.9488 8.5839C74.3515 8.9679 73.8608 9.52257 73.4768 10.2479C73.1142 10.9519 72.8688 11.8159 72.7408 12.8399V20.5839H68.1008Z" fill="white"/>
<path d="M47.6946 25.9599V12.3279V3.78394H51.5026L51.5346 8.45594L52.1106 8.48794C52.3026 7.35727 52.6332 6.40794 53.1026 5.63994C53.5932 4.87194 54.2226 4.29594 54.9906 3.91194C55.7586 3.52794 56.6439 3.33594 57.6466 3.33594C59.1399 3.33594 60.4199 3.70927 61.4866 4.45594C62.5532 5.18127 63.3639 6.21594 63.9186 7.55994C64.4946 8.8826 64.7826 10.4506 64.7826 12.2639C64.7826 13.9493 64.5266 15.4533 64.0146 16.7759C63.5026 18.0773 62.7346 19.1119 61.7106 19.8799C60.7079 20.6479 59.4492 21.0319 57.9346 21.0319C56.8679 21.0319 55.9612 20.8293 55.2146 20.4239C54.4892 20.0186 53.8812 19.4533 53.3906 18.7279C52.9212 17.9813 52.5266 17.0959 52.2066 16.0719H51.5986C51.7266 16.6479 51.8439 17.2346 51.9506 17.8319C52.0572 18.4293 52.1426 19.0159 52.2066 19.5919C52.2706 20.1466 52.3026 20.6906 52.3026 21.2239V25.9599H47.6946ZM56.3346 17.3519C57.1026 17.3519 57.7532 17.1386 58.2866 16.7119C58.8199 16.2853 59.2252 15.6879 59.5026 14.9199C59.8012 14.1519 59.9506 13.2773 59.9506 12.2959C59.9506 11.2293 59.8012 10.3226 59.5026 9.57594C59.2039 8.80794 58.7772 8.21061 58.2226 7.78394C57.6679 7.35727 57.0066 7.14394 56.2386 7.14394C55.5559 7.14394 54.9692 7.29327 54.4786 7.59194C53.9879 7.8906 53.5719 8.28527 53.2306 8.77594C52.9106 9.2666 52.6759 9.79994 52.5266 10.3759C52.3772 10.9306 52.3026 11.4639 52.3026 11.9759V12.5839C52.3026 12.9893 52.3559 13.4159 52.4626 13.8639C52.5692 14.2906 52.7399 14.7173 52.9746 15.1439C53.2092 15.5493 53.4866 15.9226 53.8066 16.2639C54.1266 16.5839 54.4999 16.8506 54.9266 17.0639C55.3532 17.2559 55.8226 17.3519 56.3346 17.3519Z" fill="white"/>
<path d="M36.9088 21.0319C35.5222 21.0319 34.2849 20.8399 33.1969 20.4559C32.1302 20.0719 31.2235 19.5173 30.4769 18.7919C29.7302 18.0666 29.1542 17.1706 28.7489 16.1039C28.3649 15.0373 28.1729 13.8319 28.1729 12.4879C28.1729 11.1653 28.3542 9.94927 28.7169 8.83994C29.1009 7.70927 29.6555 6.7386 30.3809 5.92794C31.1062 5.09594 31.9915 4.45594 33.0369 4.00794C34.0822 3.55994 35.2662 3.33594 36.5889 3.33594C37.8688 3.33594 39.0102 3.54927 40.0129 3.97594C41.0155 4.38127 41.8475 4.99994 42.5089 5.83194C43.1915 6.66394 43.6822 7.68794 43.9809 8.90394C44.3009 10.0986 44.4182 11.4746 44.3329 13.0319L31.1489 13.1599V10.6319L41.6769 10.5359L40.0449 11.8159C40.1942 10.6853 40.1195 9.75727 39.8209 9.03194C39.5222 8.3066 39.0849 7.77327 38.5089 7.43194C37.9542 7.0906 37.3355 6.91994 36.6529 6.91994C35.8422 6.91994 35.1275 7.13327 34.5089 7.55994C33.8902 7.9866 33.4102 8.61594 33.0689 9.44794C32.7275 10.2586 32.5569 11.2399 32.5569 12.3919C32.5569 14.2053 32.9515 15.5386 33.7409 16.3919C34.5515 17.2453 35.6075 17.6719 36.9088 17.6719C37.5062 17.6719 38.0075 17.5973 38.4129 17.4479C38.8395 17.2773 39.1809 17.0639 39.4369 16.8079C39.7142 16.5519 39.9275 16.2639 40.0769 15.9439C40.2475 15.6239 40.3862 15.3039 40.4929 14.9839L44.4929 15.8479C44.3009 16.6373 44.0129 17.3519 43.6289 17.9919C43.2662 18.6106 42.7755 19.1546 42.1569 19.6239C41.5382 20.0719 40.7915 20.4133 39.9169 20.6479C39.0635 20.9039 38.0609 21.0319 36.9088 21.0319Z" fill="#E6F355"/>
<path d="M4.16 20.5842L0 3.78418H4.8L7.168 16.9362H7.776L10.592 3.78418H16.128L19.04 16.9362H19.648L21.952 3.78418H26.656L22.464 20.5842H16.128L13.504 7.52818H12.96L10.464 20.5842H4.16Z" fill="#E6F355"/>
</svg>
